# xmcd
# Track frame offsets:
# 150
# 26887
# 59474
# 94536
# 134623
# 165410
# 198597
# 239359
# 283271
# 312633
#
# Disc length: 4670 seconds
# Revision: 0
# Processed by: cddbd v1.5.2PL0 Copyright (c) Steve Scherf et al.
# Submitted via: VisiTrax 2.10.3.257 - For more info visit www.synapsa.com
#
DISCID=96123c0a
DTITLE=Various Artist - Promo Only Mainstream Club 2008-05 May Disc A
DYEAR=2008
DGENRE=Dance
TTITLE0=Leona Lewis - Bleeding Love[Jason Nevins Extended Remix]
TTITLE1=Paula Abdul and Randy Jackson - Dance Like There's No Tomorrow[Soil Seek
TTITLE1=erz Club Mix]
TTITLE2=Donna Summer - I'm A Fire[Craig C Burnin Club Mix]
TTITLE3=Tamia - ME[Rosabel's Anthem Vocal Mix]
TTITLE4=Natasha Bedingfield - Pocketful Of Sunshine[Stonebridge Club]
TTITLE5=Seal - The Right Life[Tiesto Remix]
TTITLE6=Michael Jackson w/Akon - Wanna Be Startin' Something 2008[Johnny Visci
TTITLE6=ous Club Remix]
TTITLE7=MAriah Carey - Touch My Body[Seamus Haji Club]
TTITLE8=Britney Spears - Break The Ice[Tracy Young Mix]
TTITLE9=Jesse McCartney - Leavin'[Ralph Rosario Club Mix]
EXTD=
EXTT0=
EXTT1=
EXTT2=
EXTT3=
EXTT4=
EXTT5=
EXTT6=
EXTT7=
EXTT8=
EXTT9=
PLAYORDER=
